# xmcd
#
# Track frame offsets:
#	150
#	20534
#	40647
#	56682
#	77770
#	101298
#	118038
#	132129
#	158313
#	180505
#
# Disc length: 2676 seconds
# Revision: 0
# Processed by: cddbd v1.5.2PL0 Copyright (c) Steve Scherf et al.
# Submitted via: dBpowerAMP V12.0
#
DISCID=6b0a720a
DTITLE=Jawbone - Jawbone
DYEAR=2017
DGENRE=Blues
TTITLE0=Leave No Traces
TTITLE1=Get What You Deserve
TTITLE2=When Your Gun Is Loaded
TTITLE3=Family Man
TTITLE4=Bet On Yesterday
TTITLE5=Rolling On The Underground
TTITLE6=Big Old Smoke
TTITLE7=Sit Around The Table
TTITLE8=Two Billion Heartbeats
TTITLE9=The Years Use to Mean So Much
EXTD=
EXTT0=
EXTT1=
EXTT2=
EXTT3=
EXTT4=
EXTT5=
EXTT6=
EXTT7=
EXTT8=
EXTT9=
PLAYORDER=
